<?xml version="1.0" standalone="no"?>
<!DOCTYPE svg PUBLIC "-//W3C//DTD SVG 1.1//EN" 
  "http://www.w3.org/Graphics/SVG/1.1/DTD/svg11.dtd">
<svg width="483.000mm" height="43.600mm" version="1.1"
     viewBox="0 0 483.000 43.600"
     xmlns="http://www.w3.org/2000/svg">
  <desc>Created with the Front Panel Designer by the export of the file 't2-mini-panel.fpd'.</desc>
<g transform="scale(1,-1) translate(0, -43.600)" 
   fill-rule="evenodd"
   style="stroke-linecap:round; stroke-linejoin:round; stroke-opacity:1.0; stroke-opacity:1.0;">
<path d="M483.000 43.600 
L0.000 43.600
L0.000 43.600
L0.000 0.000
L0.000 0.000
L483.000 0.000
L483.000 0.000
L483.000 43.600
L483.000 43.600z"
fill="#000000" stroke="#000000" stroke-width="0.100" />
<path d="M53.355 7.173 
A0.783,0.783 0 0,1 52.893,7.470
A1.864,1.864 0 0,1 51.969,7.437
A0.882,0.882 0 0,1 51.507,7.107
A0.604,0.604 0 0,1 51.804,6.183
L52.959 5.787
A0.604,0.604 0 0,0 53.256,4.863
A0.882,0.882 0 0,0 52.794,4.533
A1.864,1.864 0 0,0 51.870,4.500
A0.783,0.783 0 0,0 51.408,4.797
M54.147 7.470 
L55.137 5.985
L55.137 4.500
L55.137 5.985
L56.127 7.470
M56.919 4.500 
L56.919 7.470
L58.899 4.500
L58.899 7.470
M61.506 7.041 
A0.968,0.968 0 0,1 59.691,6.546
L59.691 5.424
A0.992,0.992 0 0,1 61.605,5.061"
fill="none" stroke="#ffffff" stroke-width="0.200" />
<path d="M83.337 5.325 L84.987 5.325
M83.007 4.500 
L84.162 7.470
L85.317 4.500
M86.109 4.500 
L86.109 7.470
L87.198 7.470
A0.743,0.743 0 0,0 87.198,5.985
L86.109 5.985
L87.264 5.985
L87.924 4.500
M88.683 4.500 
L88.683 7.470
L89.838 5.325
L90.993 7.470
L90.993 4.500"
fill="none" stroke="#ffffff" stroke-width="0.200" />
<path d="M124.223 4.500 
L124.223 7.470
L125.312 7.470
A0.743,0.743 0 0,0 125.312,5.985
L124.223 5.985
L125.378 5.985
L126.038 4.500
M126.797 5.985 L128.447 5.985
M128.777 7.470 
L126.797 7.470
L126.797 4.500"
fill="none" stroke="#ffffff" stroke-width="0.200" />
<path d="M152.963 4.500 
L152.963 7.470
L154.052 7.470
A0.743,0.743 0 0,0 154.052,5.985
L152.963 5.985
M155.537 4.500 
L155.537 7.470
L156.626 7.470
A0.743,0.743 0 0,0 156.626,5.985
L155.537 5.985
M160.025 7.173 
A0.783,0.783 0 0,1 159.563,7.470
A1.864,1.864 0 0,1 158.639,7.437
A0.882,0.882 0 0,1 158.177,7.107
A0.604,0.604 0 0,1 158.474,6.183
L159.629 5.787
A0.604,0.604 0 0,0 159.926,4.863
A0.882,0.882 0 0,0 159.464,4.533
A1.864,1.864 0 0,0 158.540,4.500
A0.783,0.783 0 0,0 158.078,4.797"
fill="none" stroke="#ffffff" stroke-width="0.200" />
<path d="M242.963 4.500 
L242.963 7.470
L244.052 7.470
A0.743,0.743 0 0,0 244.052,5.985
L242.963 5.985
M245.537 4.500 
L245.537 7.470
L246.626 7.470
A0.743,0.743 0 0,0 246.626,5.985
L245.537 5.985
M250.025 7.173 
A0.783,0.783 0 0,1 249.563,7.470
A1.864,1.864 0 0,1 248.639,7.437
A0.882,0.882 0 0,1 248.177,7.107
A0.604,0.604 0 0,1 248.474,6.183
L249.629 5.787
A0.604,0.604 0 0,0 249.926,4.863
A0.882,0.882 0 0,0 249.464,4.533
A1.864,1.864 0 0,0 248.540,4.500
A0.783,0.783 0 0,0 248.078,4.797"
fill="none" stroke="#ffffff" stroke-width="0.200" />
<path d="M214.223 4.500 
L214.223 7.470
L215.312 7.470
A0.743,0.743 0 0,0 215.312,5.985
L214.223 5.985
L215.378 5.985
L216.038 4.500
M216.797 5.985 L218.447 5.985
M218.777 7.470 
L216.797 7.470
L216.797 4.500"
fill="none" stroke="#ffffff" stroke-width="0.200" />
<path d="M304.223 4.500 
L304.223 7.470
L305.312 7.470
A0.743,0.743 0 0,0 305.312,5.985
L304.223 5.985
L305.378 5.985
L306.038 4.500
M306.797 5.985 L308.447 5.985
M308.777 7.470 
L306.797 7.470
L306.797 4.500"
fill="none" stroke="#ffffff" stroke-width="0.200" />
<path d="M394.223 4.500 
L394.223 7.470
L395.312 7.470
A0.743,0.743 0 0,0 395.312,5.985
L394.223 5.985
L395.378 5.985
L396.038 4.500
M396.797 5.985 L398.447 5.985
M398.777 7.470 
L396.797 7.470
L396.797 4.500"
fill="none" stroke="#ffffff" stroke-width="0.200" />
<path d="M422.963 4.500 
L422.963 7.470
L424.052 7.470
A0.743,0.743 0 0,0 424.052,5.985
L422.963 5.985
M425.537 4.500 
L425.537 7.470
L426.626 7.470
A0.743,0.743 0 0,0 426.626,5.985
L425.537 5.985
M430.025 7.173 
A0.783,0.783 0 0,1 429.563,7.470
A1.864,1.864 0 0,1 428.639,7.437
A0.882,0.882 0 0,1 428.177,7.107
A0.604,0.604 0 0,1 428.474,6.183
L429.629 5.787
A0.604,0.604 0 0,0 429.926,4.863
A0.882,0.882 0 0,0 429.464,4.533
A1.864,1.864 0 0,0 428.540,4.500
A0.783,0.783 0 0,0 428.078,4.797"
fill="none" stroke="#ffffff" stroke-width="0.200" />
<path d="M332.963 4.500 
L332.963 7.470
L334.052 7.470
A0.743,0.743 0 0,0 334.052,5.985
L332.963 5.985
M335.537 4.500 
L335.537 7.470
L336.626 7.470
A0.743,0.743 0 0,0 336.626,5.985
L335.537 5.985
M340.025 7.173 
A0.783,0.783 0 0,1 339.563,7.470
A1.864,1.864 0 0,1 338.639,7.437
A0.882,0.882 0 0,1 338.177,7.107
A0.604,0.604 0 0,1 338.474,6.183
L339.629 5.787
A0.604,0.604 0 0,0 339.926,4.863
A0.882,0.882 0 0,0 339.464,4.533
A1.864,1.864 0 0,0 338.540,4.500
A0.783,0.783 0 0,0 338.078,4.797"
fill="none" stroke="#ffffff" stroke-width="0.200" />
<path d="M-204.315 14.731 
A1.500,1.500 0 0,0 -205.175,14.460
L-210.825 14.460
A1.500,1.500 0 0,0 -211.685,14.731
A6.430,6.430 0 1,0 -204.315,14.731z"
fill="#ffffff" stroke="#000000" stroke-width="0.100" />
<path d="M-384.315 14.731 
A1.500,1.500 0 0,0 -385.175,14.460
L-390.825 14.460
A1.500,1.500 0 0,0 -391.685,14.731
A6.430,6.430 0 1,0 -384.315,14.731z"
fill="#ffffff" stroke="#000000" stroke-width="0.100" />
<path d="M220.185 11.731 
A1.500,1.500 0 0,0 219.325,11.460
L213.675 11.460
A1.500,1.500 0 0,0 212.815,11.731
A6.430,6.430 0 1,0 220.185,11.731z"
fill="#ffffff" stroke="#000000" stroke-width="0.100" />
<path d="M130.185 11.731 
A1.500,1.500 0 0,0 129.325,11.460
L123.675 11.460
A1.500,1.500 0 0,0 122.815,11.731
A6.430,6.430 0 1,0 130.185,11.731z"
fill="#ffffff" stroke="#000000" stroke-width="0.100" />
<path d="M310.185 11.731 
A1.500,1.500 0 0,0 309.325,11.460
L303.675 11.460
A1.500,1.500 0 0,0 302.815,11.731
A6.430,6.430 0 1,0 310.185,11.731z"
fill="#ffffff" stroke="#000000" stroke-width="0.100" />
<path d="M400.185 11.731 
A1.500,1.500 0 0,0 399.325,11.460
L393.675 11.460
A1.500,1.500 0 0,0 392.815,11.731
A6.430,6.430 0 1,0 400.185,11.731z"
fill="#ffffff" stroke="#000000" stroke-width="0.100" />
<path d="M159.645 13.308 
A1.500,1.500 0 0,0 158.673,12.950
L154.327 12.950
A1.500,1.500 0 0,0 153.355,13.308
A4.850,4.850 0 1,0 159.645,13.308z"
fill="#ffffff" stroke="#000000" stroke-width="0.100" />
<path d="M249.645 13.308 
A1.500,1.500 0 0,0 248.673,12.950
L244.327 12.950
A1.500,1.500 0 0,0 243.355,13.308
A4.850,4.850 0 1,0 249.645,13.308z"
fill="#ffffff" stroke="#000000" stroke-width="0.100" />
<path d="M339.645 13.308 
A1.500,1.500 0 0,0 338.673,12.950
L334.327 12.950
A1.500,1.500 0 0,0 333.355,13.308
A4.850,4.850 0 1,0 339.645,13.308z"
fill="#ffffff" stroke="#000000" stroke-width="0.100" />
<path d="M429.645 13.308 
A1.500,1.500 0 0,0 428.673,12.950
L424.327 12.950
A1.500,1.500 0 0,0 423.355,13.308
A4.850,4.850 0 1,0 429.645,13.308z"
fill="#ffffff" stroke="#000000" stroke-width="0.100" />
<circle cx="156.500" cy="32.000" r="3.200"
fill="#ffffff" stroke="#000000" stroke-width="0.100" 
/>
<circle cx="426.500" cy="32.000" r="3.200"
fill="#ffffff" stroke="#000000" stroke-width="0.100" 
/>
<circle cx="336.500" cy="32.000" r="3.200"
fill="#ffffff" stroke="#000000" stroke-width="0.100" 
/>
<circle cx="246.500" cy="32.000" r="3.200"
fill="#ffffff" stroke="#000000" stroke-width="0.100" 
/>
<path d="M60.185 11.731 
A1.500,1.500 0 0,0 59.325,11.460
L53.675 11.460
A1.500,1.500 0 0,0 52.815,11.731
A6.430,6.430 0 1,0 60.185,11.731z"
fill="#ffffff" stroke="#000000" stroke-width="0.100" />
<circle cx="87.000" cy="17.000" r="3.200"
fill="#ffffff" stroke="#000000" stroke-width="0.100" 
/>
<path d="M4.975 9.320 
A1.200,1.200 0 0,0 5.895,9.750
L12.105 9.750
A1.200,1.200 0 0,0 13.025,9.320
A5.250,5.250 0 0,0 13.025,2.580
A1.200,1.200 0 0,0 12.105,2.150
L5.895 2.150
A1.200,1.200 0 0,0 4.975,2.580
A5.250,5.250 0 0,0 4.975,9.320z"
fill="#ffffff" stroke="#000000" stroke-width="0.100" />
<path d="M4.975 41.020 
A1.200,1.200 0 0,0 5.895,41.450
L12.105 41.450
A1.200,1.200 0 0,0 13.025,41.020
A5.250,5.250 0 0,0 13.025,34.280
A1.200,1.200 0 0,0 12.105,33.850
L5.895 33.850
A1.200,1.200 0 0,0 4.975,34.280
A5.250,5.250 0 0,0 4.975,41.020z"
fill="#ffffff" stroke="#000000" stroke-width="0.100" />
<path d="M469.975 9.320 
A1.200,1.200 0 0,0 470.895,9.750
L477.105 9.750
A1.200,1.200 0 0,0 478.025,9.320
A5.250,5.250 0 0,0 478.025,2.580
A1.200,1.200 0 0,0 477.105,2.150
L470.895 2.150
A1.200,1.200 0 0,0 469.975,2.580
A5.250,5.250 0 0,0 469.975,9.320z"
fill="#ffffff" stroke="#000000" stroke-width="0.100" />
<path d="M469.975 41.020 
A1.200,1.200 0 0,0 470.895,41.450
L477.105 41.450
A1.200,1.200 0 0,0 478.025,41.020
A5.250,5.250 0 0,0 478.025,34.280
A1.200,1.200 0 0,0 477.105,33.850
L470.895 33.850
A1.200,1.200 0 0,0 469.975,34.280
A5.250,5.250 0 0,0 469.975,41.020z"
fill="#ffffff" stroke="#000000" stroke-width="0.100" />
</g>
</svg>
